<svg width="29" height="29" viewBox="0 0 29 29" fill="none" xmlns="http://www.w3.org/2000/svg">
<g clip-path="url(#clip0_7856_1021)">
<path d="M21.7503 14.5C17.7459 14.5 14.5003 17.7456 14.5003 21.75C14.5003 25.7544 17.7459 29 21.7503 29C25.7547 29 29.0003 25.7544 29.0003 21.75C29.0003 17.7456 25.7547 14.5 21.7503 14.5ZM25.739 24.0881C25.5541 25.3931 24.4002 26.3417 23.0819 26.3417H22.7436V26.8347C22.7436 27.3627 22.317 27.7917 21.789 27.7917H21.7648C21.238 27.7917 20.8114 27.3615 20.8114 26.8347V26.3417H20.5698C19.7106 26.3417 18.9409 25.949 18.431 25.3351C17.9259 24.7261 18.3549 23.8054 19.1463 23.8054C19.4206 23.8054 19.7626 23.9347 19.9487 24.1365C20.1033 24.3044 20.3257 24.4095 20.571 24.4095H23.1121C23.448 24.4095 23.7549 24.1836 23.8202 23.8537C23.8963 23.4695 23.6438 23.1106 23.2752 23.0357L19.9028 22.3602C18.5591 22.0907 17.6214 20.8123 17.8184 19.4131C18.0021 18.1081 19.1572 17.1583 20.4755 17.1583H20.8138V16.675C20.8138 16.1409 21.2464 15.7083 21.7805 15.7083C22.3146 15.7083 22.7472 16.1409 22.7472 16.675V17.1583H22.9888C23.848 17.1583 24.6177 17.5498 25.1276 18.1649C25.6327 18.7739 25.2037 19.6946 24.4123 19.6946C24.138 19.6946 23.796 19.5653 23.6099 19.3635C23.4553 19.1956 23.2329 19.0905 22.9876 19.0905H20.4477C20.1118 19.0905 19.8049 19.3152 19.7384 19.6439C19.6611 20.0281 19.9148 20.3894 20.281 20.4631L23.6546 21.1386C24.9983 21.4068 25.9372 22.6877 25.739 24.0857V24.0881ZM29.0003 2.41667V7.25C29.0003 7.917 28.4602 8.45833 27.792 8.45833C27.1238 8.45833 26.5836 7.917 26.5836 7.25V4.12525L21.6754 9.0335C20.0514 10.6575 17.4088 10.6587 15.7848 9.0335L12.7168 5.96675C12.0353 5.28525 10.9248 5.28525 10.2421 5.96675L2.06293 14.146C1.8273 14.3816 1.51797 14.5 1.20864 14.5C0.899302 14.5 0.589969 14.3816 0.354344 14.146C-0.118115 13.6735 -0.118115 12.9098 0.354344 12.4374L8.53355 4.25817C10.1576 2.63296 12.8014 2.63296 14.4254 4.25817L17.4933 7.32492C18.1761 8.00883 19.2865 8.00521 19.9668 7.32492L24.8751 2.41667H21.7503C21.0821 2.41667 20.542 1.87533 20.542 1.20833C20.542 0.541333 21.0821 0 21.7503 0H26.5836C27.9164 0 29.0003 1.08387 29.0003 2.41667ZM3.6253 18.125V27.7917C3.6253 28.4599 3.08397 29 2.41697 29C1.74997 29 1.20864 28.4599 1.20864 27.7917V18.125C1.20864 17.4568 1.74997 16.9167 2.41697 16.9167C3.08397 16.9167 3.6253 17.4568 3.6253 18.125ZM9.66697 12.6875V27.7917C9.66697 28.4599 9.12564 29 8.45864 29C7.79164 29 7.2503 28.4599 7.2503 27.7917V12.6875C7.2503 12.0205 7.79164 11.4792 8.45864 11.4792C9.12564 11.4792 9.66697 12.0205 9.66697 12.6875ZM14.5003 15.7083C13.8333 15.7083 13.292 15.167 13.292 14.5V12.0833C13.292 11.4163 13.8333 10.875 14.5003 10.875C15.1673 10.875 15.7086 11.4163 15.7086 12.0833V14.5C15.7086 15.167 15.1673 15.7083 14.5003 15.7083Z" fill="black"/>
</g>
<defs>
<clipPath id="clip0_7856_1021">
<rect width="29" height="29" fill="white"/>
</clipPath>
</defs>
</svg>
