<svg width="34" height="34" viewBox="0 0 34 34" fill="none" xmlns="http://www.w3.org/2000/svg">
<path d="M12.8478 14.7163C12.7174 14.8467 12.7174 15.0577 12.8478 15.1881L15.1484 17.3938C15.7123 17.935 15.7321 18.8332 15.1895 19.397C14.6469 19.9622 13.7502 19.9792 13.1863 19.4381L10.8658 17.2111C9.61067 15.9559 9.61067 13.9471 10.8446 12.7117L13.226 10.3303C13.7799 9.77642 14.6753 9.77642 15.2292 10.3303C15.7831 10.8842 15.7831 11.7796 15.2292 12.3335L12.8478 14.7163ZM18.853 17.3938C18.2892 17.935 18.2693 18.8332 18.8119 19.397C19.3545 19.9622 20.2513 19.9792 20.8151 19.4381L23.1568 17.1912C24.3922 15.9559 24.3922 13.9471 23.1568 12.7132L20.7754 10.3317C20.2215 9.77783 19.3262 9.77783 18.7723 10.3317C18.2183 10.8857 18.2183 11.781 18.7723 12.3349L21.1537 14.7163C21.284 14.8467 21.284 15.0577 21.1749 15.1668L18.8544 17.3938H18.853ZM14.1667 22.6667H14.0448L13.0433 21.6651C12.7769 21.3988 12.4171 21.25 12.0417 21.25H5.66667V11.3333C5.66667 8.99017 7.5735 7.08333 9.91667 7.08333H24.0833C26.4265 7.08333 28.3333 8.99017 28.3333 11.3333C28.3333 12.1153 28.968 12.75 29.75 12.75C30.532 12.75 31.1667 12.1153 31.1667 11.3333C31.1667 7.42758 27.9891 4.25 24.0833 4.25H9.91667C6.01092 4.25 2.83333 7.42758 2.83333 11.3333V21.5107C1.18858 22.0972 0 23.6555 0 25.5C0 27.8432 1.90683 29.75 4.25 29.75H11.3333C12.1153 29.75 12.75 29.1167 12.75 28.3333C12.75 27.5499 12.1153 26.9167 11.3333 26.9167H4.25C3.46942 26.9167 2.83333 26.282 2.83333 25.5C2.83333 24.718 3.46942 24.0833 4.25 24.0833H11.4552L12.4568 25.0849C12.7231 25.3512 13.0829 25.5 13.4583 25.5H14.1667C14.9487 25.5 15.5833 24.8667 15.5833 24.0833C15.5833 23.2999 14.9487 22.6667 14.1667 22.6667ZM32.7548 22.8381L23.2532 32.3397C22.1836 33.4107 20.7598 34 19.2468 34H17C16.218 34 15.5833 33.3667 15.5833 32.5833V30.3365C15.5833 28.8235 16.1741 27.3997 17.2437 26.3302L26.7453 16.8286C28.3503 15.2221 31.1497 15.2221 32.7562 16.8286C34.4123 18.4861 34.4108 21.1806 32.7548 22.8381ZM30.7516 18.8317C30.2161 18.2948 29.2825 18.2948 28.7484 18.8317L19.2454 28.3333C18.7099 28.8688 18.4153 29.58 18.4153 30.3365V31.1667H19.2454C19.9906 31.1667 20.7216 30.8635 21.2486 30.3365L30.7502 20.8349C31.3027 20.2824 31.3027 19.3842 30.7502 18.8317H30.7516Z" fill="black"/>
</svg>
