<svg width="35" height="35" viewBox="0 0 35 35" fill="none" xmlns="http://www.w3.org/2000/svg">
<g clip-path="url(#clip0_7730_1136)">
<path d="M35 17.6064C35 26.3404 28.5921 33.581 20.2271 34.895V22.6989H24.2944L25.0688 17.6531H20.2271V14.3792C20.2271 12.9981 20.9037 11.6535 23.0708 11.6535H25.2715V7.35728C25.2715 7.35728 23.2735 7.01603 21.3646 7.01603C17.3775 7.01603 14.7729 9.43249 14.7729 13.806V17.6517H10.341V22.6975H14.7729V34.8935C6.40938 33.5781 0 26.3389 0 17.6064C0 7.94207 7.83563 0.106445 17.5 0.106445C27.1644 0.106445 35 7.94061 35 17.6064Z" fill="white"/>
</g>
<defs>
<clipPath id="clip0_7730_1136">
<rect width="35" height="35" fill="white"/>
</clipPath>
</defs>
</svg>
