<svg width="28" height="28" viewBox="0 0 28 28" fill="none" xmlns="http://www.w3.org/2000/svg">
<g clip-path="url(#clip0_7771_2330)">
<path d="M12.25 14C12.8602 14 13.454 13.8623 14 13.5987C14.546 13.8635 15.1398 14 15.75 14C18.0017 14 19.8333 12.1683 19.8333 9.91667C20.5742 9.1595 21 8.06867 21 7C21 5.65367 20.3327 4.25367 19.25 3.5C19.25 1.57033 17.6797 0 15.75 0C15.1305 0 14.5273 0.168 14 0.476C13.4727 0.166833 12.8695 0 12.25 0C10.3203 0 8.75 1.57033 8.75 3.5C7.66733 4.25367 7 5.65367 7 7C7 8.06867 7.42583 9.1595 8.16667 9.91667C8.16667 12.1683 9.99833 14 12.25 14ZM15.1667 2.499C15.316 2.408 15.5085 2.33333 15.75 2.33333C16.394 2.33333 16.9167 2.85717 16.9167 3.5V4.3365C16.9167 4.79967 17.1908 5.21967 17.6167 5.40517C18.2548 5.68517 18.6667 6.3105 18.6667 7C18.6667 7.56583 18.3995 8.08267 17.9305 8.4175C17.5618 8.6835 17.3787 9.1385 17.465 9.58417C17.486 9.69267 17.5 9.80233 17.5 9.91667C17.5 10.8815 16.7148 11.6667 15.75 11.6667C15.5295 11.6667 15.3358 11.6212 15.1667 11.5582V2.499ZM10.3833 5.40517C10.808 5.21967 11.0833 4.79967 11.0833 4.3365V3.5C11.0833 2.85717 11.606 2.33333 12.25 2.33333C12.4915 2.33333 12.684 2.408 12.8333 2.499V11.5582C12.6642 11.6212 12.4705 11.6667 12.25 11.6667C11.2852 11.6667 10.5 10.8815 10.5 9.91667C10.5 9.80233 10.5152 9.69267 10.535 9.58417C10.6202 9.13733 10.4382 8.68233 10.0695 8.4175C9.60167 8.08267 9.33333 7.56583 9.33333 7C9.33333 6.3105 9.74633 5.68517 10.3833 5.40517ZM3.5 7C5.42967 7 7 8.57033 7 10.5V16.548C7.31033 16.4383 7.63233 16.3567 7.97067 16.338C8.89117 16.2937 9.8 16.6028 10.5058 17.2363L14.0163 20.4657C14.112 20.3677 14.203 20.265 14.3045 20.1717L17.5047 17.2282C18.2012 16.604 19.1088 16.2855 20.0293 16.3392C20.3677 16.3578 20.6897 16.4395 21 16.5492V10.5012C21 8.5715 22.5703 7.00117 24.5 7.00117C26.4297 7.00117 28 8.5715 28 10.5012V19.9523C28 22.4455 27.0293 24.7893 25.2665 26.551L24.1582 27.6593C23.9307 27.8868 23.632 28.0012 23.3333 28.0012C23.0347 28.0012 22.736 27.8868 22.5085 27.6593C22.0523 27.2032 22.0523 26.4658 22.5085 26.0097L23.6168 24.9013C24.9387 23.5795 25.6667 21.8213 25.6667 19.9523V10.5C25.6667 9.85717 25.144 9.33333 24.5 9.33333C23.856 9.33333 23.3333 9.85717 23.3333 10.5C23.3333 10.5 23.3123 19.9208 23.3065 19.9663C23.2727 20.7305 23.0008 21.4947 22.463 22.134L19.411 25.3085C18.9642 25.7717 18.2268 25.7868 17.7613 25.34C17.2982 24.8932 17.283 24.1547 17.7298 23.6903L20.7293 20.5753C21.098 20.1343 21.0875 19.481 20.7037 19.0517C20.496 18.8207 20.2125 18.6842 19.9022 18.6667C19.5907 18.648 19.2943 18.7553 19.0738 18.9525L15.8842 21.8878C14.6883 22.988 14.0012 24.5537 14.0012 26.18V26.8333C14.0012 27.4785 13.4797 28 12.8345 28C12.1893 28 11.6678 27.4785 11.6678 26.8333V26.18C11.6678 24.836 12.0108 23.527 12.6292 22.358L8.93783 18.9618C8.708 18.7542 8.40583 18.6468 8.099 18.6667C7.78867 18.6842 7.50517 18.8207 7.29633 19.0528C7.11083 19.2605 7.01633 19.5755 7 19.8322C6.9965 20.0842 7.06767 20.3338 7.21817 20.5158L10.1733 23.5888C10.6202 24.0532 10.605 24.7917 10.1418 25.2385C9.9155 25.4567 9.625 25.564 9.33333 25.564C9.0265 25.564 8.722 25.4438 8.49217 25.2058L5.4845 22.0733C4.9595 21.448 4.69817 20.678 4.68183 19.9045C4.68067 19.8788 4.66667 10.4977 4.66667 10.4977C4.66667 9.85483 4.144 9.331 3.5 9.331C2.856 9.331 2.33333 9.85483 2.33333 10.4977V19.9488C2.33333 21.819 3.06133 23.576 4.38317 24.8978L5.4915 26.0062C5.94767 26.4623 5.94767 27.1997 5.4915 27.6558C5.264 27.8833 4.96533 27.9977 4.66667 27.9977C4.368 27.9977 4.06933 27.8833 3.84183 27.6558L2.7335 26.5475C0.970667 24.787 0 22.4432 0 19.9512V10.5C0 8.57033 1.57033 7 3.5 7Z" fill="black"/>
</g>
<defs>
<clipPath id="clip0_7771_2330">
<rect width="28" height="28" fill="white"/>
</clipPath>
</defs>
</svg>
