<svg width="35" height="35" viewBox="0 0 35 35" fill="none" xmlns="http://www.w3.org/2000/svg">
<path d="M29.8224 29.8237H24.6361V21.7016C24.6361 19.7647 24.6016 17.2723 21.9386 17.2723C19.2377 17.2723 18.8237 19.3818 18.8237 21.5619V29.8237H13.6392V13.1208H18.6185V15.4027H18.6875C19.7033 13.6675 21.5902 12.6309 23.5995 12.7051C28.8565 12.7051 29.8241 16.1633 29.8241 20.6598L29.8224 29.8237ZM7.78717 10.8371C6.12453 10.8371 4.77751 9.49007 4.77751 7.82736C4.77751 6.16466 6.12453 4.81759 7.78717 4.81759C9.44981 4.81759 10.7968 6.16466 10.7968 7.82736C10.7968 9.49007 9.44981 10.8371 7.78717 10.8371ZM10.3794 29.8237H5.188V13.1208H10.3794V29.8237ZM32.4077 0.00196039H2.58192C1.17282 -0.0135628 0.0172473 1.11618 0 2.52534V32.4747C0.0172473 33.8856 1.17282 35.0153 2.58192 34.9998H32.4077C33.8203 35.0171 34.981 33.8873 35 32.4747V2.52361C34.9793 1.111 33.8186 -0.0187372 32.4077 0.000235513" fill="white"/>
</svg>
