<svg width="35" height="35" viewBox="0 0 35 35" fill="none" xmlns="http://www.w3.org/2000/svg">
<path d="M32.7615 14.3879C29.6421 14.3879 26.7502 13.3904 24.3906 11.6958V23.924C24.3906 30.0315 19.4221 34.9985 13.316 34.9985C10.9565 34.9985 8.7675 34.2548 6.96937 32.9919C4.11395 30.9867 2.24146 27.6704 2.24146 23.924C2.24146 17.8165 7.21 12.8479 13.3175 12.8479C13.825 12.8479 14.3208 12.8902 14.8094 12.9558V14.3806V19.0983C14.3369 18.951 13.8381 18.865 13.3175 18.865C10.5292 18.865 8.26 21.1342 8.26 23.924C8.26 25.8665 9.3625 27.5538 10.9725 28.401C11.674 28.77 12.4717 28.9815 13.319 28.9815C16.0431 28.9815 18.2656 26.8144 18.3677 24.1135L18.3721 0H24.3892C24.3892 0.522083 24.4402 1.03104 24.5306 1.52688C24.955 3.81938 26.3156 5.78667 28.2012 7.01604C29.5137 7.87208 31.08 8.37229 32.76 8.37229L32.7615 14.3879Z" fill="white"/>
</svg>
