<svg width="28" height="28" viewBox="0 0 28 28" fill="none" xmlns="http://www.w3.org/2000/svg">
<g clip-path="url(#clip0_7771_2319)">
<path d="M25.6667 16.9598V15.1667C25.6667 12.593 23.5737 10.5 21 10.5C18.4263 10.5 16.3333 12.593 16.3333 15.1667V16.9598C14.9392 17.7683 14 19.2768 14 21V23.3333C14 25.907 16.093 28 18.6667 28H23.3333C25.907 28 28 25.907 28 23.3333V21C28 19.2768 27.0608 17.7683 25.6667 16.9598ZM18.6667 15.1667C18.6667 13.8798 19.7132 12.8333 21 12.8333C22.2868 12.8333 23.3333 13.8798 23.3333 15.1667V16.3333H18.6667V15.1667ZM25.6667 23.3333C25.6667 24.6202 24.6202 25.6667 23.3333 25.6667H18.6667C17.3798 25.6667 16.3333 24.6202 16.3333 23.3333V21C16.3333 19.7132 17.3798 18.6667 18.6667 18.6667H23.3333C24.6202 18.6667 25.6667 19.7132 25.6667 21V23.3333ZM22.75 22.1667C22.75 23.1327 21.966 23.9167 21 23.9167C20.034 23.9167 19.25 23.1327 19.25 22.1667C19.25 21.2007 20.034 20.4167 21 20.4167C21.966 20.4167 22.75 21.2007 22.75 22.1667ZM9.33333 14C13.1938 14 16.3333 10.8605 16.3333 7C16.3333 3.1395 13.1938 0 9.33333 0C5.47283 0 2.33333 3.1395 2.33333 7C2.33333 10.8605 5.47283 14 9.33333 14ZM9.33333 2.33333C11.907 2.33333 14 4.42633 14 7C14 9.57367 11.907 11.6667 9.33333 11.6667C6.75967 11.6667 4.66667 9.57367 4.66667 7C4.66667 4.42633 6.75967 2.33333 9.33333 2.33333ZM11.655 17.7462C11.564 18.3843 10.9748 18.83 10.3355 18.7378C10.0042 18.69 9.66583 18.6667 9.33333 18.6667C5.47283 18.6667 2.33333 21.8062 2.33333 25.6667V26.8333C2.33333 27.4773 1.81067 28 1.16667 28C0.522667 28 0 27.4773 0 26.8333V25.6667C0 20.5205 4.18717 16.3333 9.33333 16.3333C9.7755 16.3333 10.2235 16.3648 10.6645 16.4278C11.3027 16.5188 11.746 17.1092 11.6562 17.7473L11.655 17.7462Z" fill="black"/>
</g>
<defs>
<clipPath id="clip0_7771_2319">
<rect width="28" height="28" fill="white"/>
</clipPath>
</defs>
</svg>
