<svg width="29" height="29" viewBox="0 0 29 29" fill="none" xmlns="http://www.w3.org/2000/svg">
<path d="M15.8811 21.1276L17.3202 18.7291L15.8811 16.3305C15.538 15.7578 15.7228 15.0159 16.2956 14.6727C16.8683 14.3283 17.6103 14.5144 17.9534 15.0872L18.7304 16.3813L19.5073 15.0872C19.8505 14.5144 20.5924 14.3283 21.1652 14.6727C21.7379 15.0159 21.9228 15.7578 21.5796 16.3305L20.1405 18.7291L21.5796 21.1276C21.9228 21.7004 21.7379 22.4423 21.1652 22.7855C20.9706 22.9027 20.7568 22.9582 20.5441 22.9582C20.1333 22.9582 19.7333 22.7492 19.5073 22.3722L18.7304 21.0781L17.9534 22.3722C17.7262 22.7492 17.3263 22.9582 16.9167 22.9582C16.7052 22.9582 16.4901 22.9027 16.2956 22.7855C15.7228 22.4423 15.538 21.7004 15.8811 21.1276ZM10.875 22.9582C12.8736 22.9582 14.5 21.3318 14.5 19.3332V15.7083C14.5 15.0412 13.9587 14.4999 13.2917 14.4999C12.6247 14.4999 12.0833 15.0412 12.0833 15.7083V19.3332C12.0833 20.0002 11.5408 20.5416 10.875 20.5416C10.2092 20.5416 9.66667 20.0002 9.66667 19.3332V15.7083C9.66667 15.0412 9.12533 14.4999 8.45833 14.4999C7.79133 14.4999 7.25 15.0412 7.25 15.7083V19.3332C7.25 21.3318 8.87642 22.9582 10.875 22.9582ZM5.4375 4.83325C4.437 4.83325 3.625 5.64525 3.625 6.64575C3.625 7.64625 4.437 8.45825 5.4375 8.45825C6.438 8.45825 7.25 7.64625 7.25 6.64575C7.25 5.64525 6.438 4.83325 5.4375 4.83325ZM29 7.24992V21.7499C29 25.0813 26.2897 27.7916 22.9583 27.7916H6.04167C2.71029 27.7916 0 25.0813 0 21.7499V7.24992C0 3.91854 2.71029 1.20825 6.04167 1.20825H22.9583C26.2897 1.20825 29 3.91854 29 7.24992ZM26.5833 12.0833H2.41667V21.7499C2.41667 23.7485 4.04308 25.3749 6.04167 25.3749H22.9583C24.9569 25.3749 26.5833 23.7485 26.5833 21.7499V12.0833ZM26.5833 7.24992C26.5833 5.25133 24.9569 3.62492 22.9583 3.62492H6.04167C4.04308 3.62492 2.41667 5.25133 2.41667 7.24992V9.66658H26.5833V7.24992ZM10.2708 4.83325C9.27033 4.83325 8.45833 5.64525 8.45833 6.64575C8.45833 7.64625 9.27033 8.45825 10.2708 8.45825C11.2713 8.45825 12.0833 7.64625 12.0833 6.64575C12.0833 5.64525 11.2713 4.83325 10.2708 4.83325Z" fill="black"/>
</svg>
