<svg width="27" height="30" viewBox="0 0 27 30" fill="none" xmlns="http://www.w3.org/2000/svg">
<path d="M25.1204 17.3552L24.5567 17.0314C24.6842 16.3514 24.748 15.6713 24.748 15C24.748 14.3287 24.6842 13.6474 24.5567 12.9686L25.1204 12.6436C26.9126 11.6122 27.5325 9.31453 26.5014 7.52313C26.0027 6.6543 25.1954 6.033 24.2281 5.77173C23.262 5.51171 22.2509 5.64297 21.3823 6.14051L20.8199 6.46429C19.7689 5.56421 18.5578 4.86416 17.2493 4.40287V3.75031C17.2493 1.68264 15.5671 0 13.5 0C11.4329 0 9.75068 1.68264 9.75068 3.75031V4.40287C8.44217 4.86541 7.23114 5.56421 6.18008 6.46429L5.61768 6.14176C4.75034 5.64172 3.73927 5.51171 2.77195 5.77173C1.80462 6.033 0.997269 6.65555 0.498609 7.52313C-0.532454 9.31578 0.0874338 11.6122 1.87961 12.6448L2.44326 12.9686C2.31578 13.6486 2.25204 14.3287 2.25204 15C2.25204 15.6713 2.31578 16.3526 2.44326 17.0314L1.87961 17.3564C0.0874338 18.3878 -0.532454 20.6855 0.498609 22.4769C0.997269 23.3457 1.80462 23.967 2.77195 24.2283C3.73802 24.4908 4.75034 24.3583 5.61768 23.8595L6.18008 23.5357C7.23114 24.4358 8.44217 25.1358 9.75068 25.5971V26.2497C9.75068 28.3174 11.4329 30 13.5 30C15.5671 30 17.2493 28.3174 17.2493 26.2497V25.5971C18.5578 25.1346 19.7689 24.4358 20.8199 23.5357L21.3823 23.8582C22.2509 24.3583 23.262 24.4908 24.2281 24.2283C25.1954 23.967 26.0027 23.3444 26.5014 22.4769C27.5325 20.6842 26.9126 18.3878 25.1204 17.3552ZM21.926 12.6748C22.1397 13.4549 22.2484 14.2374 22.2484 14.9988C22.2484 15.7601 22.1397 16.5426 21.926 17.3227C21.7747 17.8715 22.0147 18.454 22.5084 18.7378L23.8744 19.5229C24.4718 19.8667 24.6792 20.633 24.3343 21.2305C24.1681 21.5193 23.8994 21.7268 23.5769 21.8143C23.2557 21.9031 22.9183 21.8581 22.6283 21.6906L21.2648 20.9067C20.7699 20.623 20.1463 20.7092 19.7489 21.1168C18.6378 22.2519 17.2343 23.0632 15.6871 23.462C15.1347 23.6045 14.7498 24.102 14.7498 24.6721V26.2497C14.7498 26.9385 14.1886 27.4998 13.5 27.4998C12.8114 27.4998 12.2502 26.9385 12.2502 26.2497V24.6721C12.2502 24.102 11.864 23.6045 11.3129 23.462C9.76693 23.0632 8.36218 22.2519 7.25113 21.1168C7.00993 20.8692 6.68499 20.7405 6.35755 20.7405C6.14508 20.7405 5.93012 20.7942 5.73516 20.9067L4.37166 21.6906C4.08171 21.8568 3.74302 21.9006 3.42308 21.8143C3.10064 21.7268 2.83194 21.5205 2.66572 21.2305C2.32203 20.633 2.52949 19.8679 3.12688 19.5241L4.49288 18.7391C4.98654 18.4553 5.22525 17.8727 5.07528 17.3239C4.86157 16.5439 4.75284 15.7613 4.75284 15C4.75284 14.2387 4.86157 13.4561 5.07528 12.6761C5.2265 12.1273 4.98654 11.5447 4.49288 11.2609L3.12688 10.4759C2.52949 10.1321 2.32203 9.36578 2.66697 8.76823C2.83319 8.47946 3.10189 8.27194 3.42433 8.18443C3.74677 8.09818 4.08421 8.14193 4.37291 8.30819L5.73641 9.09201C6.23132 9.37703 6.85496 9.28952 7.25238 8.88199C8.36343 7.7469 9.76693 6.93558 11.3141 6.5368C11.8665 6.39428 12.2515 5.89674 12.2515 5.32669V3.74906C12.2515 3.06025 12.8126 2.49896 13.5012 2.49896C14.1899 2.49896 14.751 3.06025 14.751 3.74906V5.32669C14.751 5.89674 15.1372 6.39428 15.6884 6.5368C17.2343 6.93558 18.6391 7.7469 19.7501 8.88199C20.1488 9.28952 20.7712 9.37703 21.2661 9.09201L22.6296 8.30819C22.9183 8.14068 23.2545 8.09567 23.5782 8.18443C23.9006 8.27194 24.1693 8.47821 24.3355 8.76823C24.6792 9.36578 24.4718 10.1308 23.8744 10.4746L22.5084 11.2597C22.0147 11.5435 21.776 12.126 21.926 12.6748ZM18.1804 18.3415C18.6403 18.8566 18.5966 19.6466 18.0829 20.1067C17.8442 20.3204 17.5468 20.4255 17.2493 20.4255C16.9056 20.4255 16.5644 20.2854 16.317 20.0092C15.5996 19.2078 14.5723 18.7491 13.4987 18.7491C12.4252 18.7491 11.3979 19.2091 10.6805 20.0092C10.2206 20.523 9.43074 20.568 8.91583 20.1067C8.40092 19.6466 8.35843 18.8566 8.81835 18.3415C10.0081 17.0114 11.7141 16.2489 13.4987 16.2489C15.2834 16.2489 16.9906 17.0114 18.1804 18.3415ZM10.3756 11.8735C10.3756 10.1471 11.7741 8.74823 13.5 8.74823C15.2259 8.74823 16.6244 10.1471 16.6244 11.8735C16.6244 13.5999 15.2259 14.9988 13.5 14.9988C11.7741 14.9988 10.3756 13.5999 10.3756 11.8735Z" fill="black"/>
</svg>
