<svg width="29" height="29" viewBox="0 0 29 29" fill="none" xmlns="http://www.w3.org/2000/svg">
<path d="M21.09 0C18.6923 0 16.437 1.07095 14.5046 2.46093C12.2506 0.83399 10.0335 0 7.90873 0C2.43984 0 0 2.45034 0 7.94276C0 16.6718 4.44207 21.0748 6.34017 22.9546L7.5647 24.1923C8.87887 25.536 10.2379 26.9246 11.8117 28.1584C12.5327 28.725 13.3895 28.999 14.2423 28.999C15.8504 29.0387 17.5205 27.8817 17.9871 26.2667C19.7217 27.519 22.3356 27.0266 23.4982 25.2381C24.2126 24.1923 24.3945 22.8288 23.9384 21.6414C24.5764 21.3726 25.159 20.9517 25.5992 20.352C26.8884 18.5847 26.5061 16.0947 24.7477 14.8027C23.083 13.5795 21.0425 12.122 19.0535 9.95889C19.4001 9.59882 19.7494 9.22948 20.1106 8.81117C20.5864 8.25914 20.5271 7.42251 19.9761 6.94462C19.4265 6.46673 18.5934 6.5263 18.1176 7.07964C15.0437 10.6446 12.509 11.7315 12.4075 11.7765C11.8974 12.0253 11.3424 11.9433 10.9272 11.562C10.5674 11.2297 10.4514 10.7002 10.6307 10.2501C11.204 9.41879 16.0297 2.65156 21.0913 2.65156C25.0825 2.65156 26.3638 3.93828 26.3638 7.94673C26.3638 9.45982 26.1594 10.5824 25.7376 11.3793C25.3963 12.0253 25.6427 12.8276 26.2847 13.1704C26.9266 13.5133 27.7254 13.2657 28.0681 12.621C28.6955 11.4323 29 9.9033 29 7.94805C29 2.45564 26.5602 0.0052951 21.0913 0.0052951L21.09 0ZM8.37667 8.86412C7.52516 10.3732 7.87578 12.3417 9.14249 13.508C9.90173 14.2083 10.8719 14.5683 11.8315 14.5683C12.3969 14.5683 12.9571 14.4439 13.4725 14.1924C13.5595 14.1566 15.0464 13.5199 17.1264 11.7672C19.2894 14.1156 21.5078 15.7002 23.1871 16.9366C23.7657 17.343 23.9015 18.222 23.4718 18.7846C23.021 19.4055 22.1774 19.4849 21.5737 19.0467C20.597 18.2842 19.2156 17.1339 17.6325 15.5969C17.1092 15.0899 16.2749 15.1032 15.7687 15.6274C15.2625 16.1529 15.277 16.9909 15.799 17.4992C17.4967 19.1487 19.3237 20.7054 20.974 21.9048C21.5684 22.294 21.7306 23.1664 21.3167 23.7462C20.9331 24.3393 20.0605 24.5008 19.4858 24.0917C18.3074 23.2842 16.027 21.4441 13.4752 18.917C12.9585 18.4034 12.1228 18.4087 11.6113 18.9302C11.0999 19.4518 11.1052 20.2885 11.6245 20.8021C12.857 22.0412 14.0275 23.0525 15.0556 23.9845C15.629 24.4359 15.7305 25.2699 15.281 25.8444C14.8341 26.4203 14.0011 26.5209 13.433 26.0721C11.9962 24.9442 10.6979 23.6178 9.44302 22.3364L8.19081 21.0708C6.38894 19.2837 2.63624 15.5665 2.63624 7.94408C2.63624 3.93564 3.91746 2.64891 7.90873 2.64891C9.29671 2.64891 10.7954 3.19299 12.3706 4.21628C10.0204 6.41245 8.49793 8.68143 8.37667 8.86412Z" fill="black"/>
</svg>
