<svg width="22" height="29" viewBox="0 0 22 29" fill="none" xmlns="http://www.w3.org/2000/svg">
<path d="M16.5628 14.5C19.6457 11.7726 21.456 8.74906 21.9474 5.49837C22.154 4.13164 21.7457 2.74194 20.8265 1.68697C19.8914 0.615093 18.5357 0 17.1067 0H4.89377C3.46479 0 2.10793 0.616301 1.17402 1.68818C0.253553 2.74556 -0.154728 4.13647 0.0530798 5.50442C0.548151 8.76598 2.35608 11.7859 5.43285 14.5C2.35608 17.2141 0.548151 20.2352 0.0530798 23.4956C-0.154728 24.8635 0.254775 26.2556 1.17402 27.3118C2.10915 28.3849 3.46479 29 4.89377 29H17.1055C18.5345 29 19.8901 28.3849 20.8253 27.313C21.7457 26.2569 22.154 24.8684 21.9474 23.5004C21.456 20.2497 19.6457 17.2286 16.5628 14.5ZM18.9733 25.736C18.5039 26.275 17.8231 26.5843 17.1055 26.5843H4.89377C4.17623 26.5843 3.49535 26.275 3.02595 25.7348C2.56388 25.2043 2.36586 24.536 2.46854 23.8545C2.92694 20.8346 4.81921 18.0069 8.09034 15.4474C8.38372 15.219 8.55363 14.8686 8.55363 14.5C8.55363 14.1314 8.3825 13.781 8.09034 13.5526C4.81921 10.9931 2.92694 8.16539 2.46854 5.14551C2.36586 4.46396 2.56266 3.79569 3.02595 3.26519C3.49535 2.72623 4.17623 2.41687 4.89377 2.41687H17.1055C17.8231 2.41687 18.5039 2.72502 18.9733 3.26519C19.4342 3.79448 19.6322 4.46154 19.5295 5.14189C19.0736 8.14847 17.1825 10.9798 13.9053 13.555C13.6144 13.7846 13.4444 14.1326 13.4444 14.5012C13.4444 14.8698 13.6144 15.2178 13.9053 15.4474C17.1825 18.0238 19.0748 20.8539 19.5295 23.8605C19.6322 24.5409 19.4342 25.2079 18.9721 25.7372L18.9733 25.736ZM16.6312 6.49533C16.784 6.12193 16.7388 5.69898 16.5114 5.36545C16.2841 5.03313 15.9039 4.83253 15.4981 4.83253H6.49756C6.0905 4.83253 5.71156 5.03313 5.48419 5.36666C5.25683 5.69898 5.2116 6.12193 5.3644 6.49412C6.27875 8.73335 8.17591 10.5375 9.60734 11.6566L10.2418 12.1532C10.4642 12.3284 10.7319 12.4142 11.0009 12.4142C11.2698 12.4142 11.5399 12.326 11.7624 12.1508L12.3834 11.6614C13.8173 10.5339 15.7181 8.72369 16.6312 6.49533ZM10.9984 9.66264C10.2271 9.04755 9.32252 8.22098 8.59519 7.2506H13.3968C12.6719 8.21494 11.7698 9.04392 10.9984 9.66264Z" fill="black"/>
</svg>
