<svg width="16" height="16" viewBox="0 0 16 16" fill="none" xmlns="http://www.w3.org/2000/svg">
<path d="M14.8744 11.3388L11.3388 7.80327L14.8744 4.26773C15.3432 3.79889 15.6066 3.16301 15.6066 2.49997C15.6066 1.83693 15.3432 1.20104 14.8744 0.732201C14.4055 0.26336 13.7696 -3.30152e-05 13.1066 -3.34577e-05C12.4435 -3.32049e-05 11.8077 0.26336 11.3388 0.732201L7.80328 4.26773L4.26775 0.732201C3.79891 0.26336 3.16302 -3.32049e-05 2.49998 -3.34577e-05C1.83694 -3.30152e-05 1.20106 0.26336 0.732216 0.732201C0.263375 1.20104 -1.7518e-05 1.83693 -1.72862e-05 2.49997C-1.70333e-05 3.16301 0.263375 3.79889 0.732216 4.26773L4.26775 7.80327L0.732216 11.3388C0.263376 11.8076 -1.56846e-05 12.4435 -1.6359e-05 13.1066C-1.6359e-05 13.7696 0.263375 14.4055 0.732216 14.8743C1.20106 15.3432 1.83694 15.6066 2.49998 15.6066C3.16303 15.6066 3.79891 15.3432 4.26775 14.8743L7.80328 11.3388L11.3388 14.8743C11.8077 15.3432 12.4435 15.6066 13.1066 15.6066C13.7696 15.6066 14.4055 15.3432 14.8744 14.8743C15.3432 14.4055 15.6066 13.7696 15.6066 13.1066C15.6066 12.4435 15.3432 11.8076 14.8744 11.3388Z" fill="#D72229"/>
</svg>
