<svg width="42" height="31" viewBox="0 0 42 31" fill="none" xmlns="http://www.w3.org/2000/svg">
<path d="M41.1215 4.69823C40.6385 2.84919 39.2157 1.39167 37.408 0.896934C34.1337 3.18223e-07 21 0 21 0C21 0 7.86625 3.18223e-07 4.59025 0.896934C2.78425 1.39167 1.3615 2.84741 0.8785 4.69823C0 8.05105 0 15.045 0 15.045C0 15.045 0 22.0389 0.8785 25.3918C1.3615 27.2408 2.78425 28.6983 4.592 29.1931C7.86625 30.09 21 30.09 21 30.09C21 30.09 34.1338 30.09 37.4098 29.1931C39.2158 28.6983 40.6385 27.2426 41.1233 25.3918C42 22.0389 42 15.045 42 15.045C42 15.045 42 8.05105 41.1215 4.69823ZM16.7055 21.3965V8.6935L27.6815 15.045L16.7055 21.3965Z" fill="white"/>
</svg>
